<mxfile host="65bd71144e">
    <diagram id="NI4gVl3g9qLXOJn4oS7B" name="Page-1">
        <mxGraphModel dx="2920" dy="2480" grid="1" gridSize="10" guides="1" tooltips="1" connect="1" arrows="1" fold="1" page="1" pageScale="1" pageWidth="850" pageHeight="1100" math="0" shadow="1">
            <root>
                <mxCell id="0"/>
                <mxCell id="1" parent="0"/>
                <mxCell id="21" value="" style="edgeStyle=none;html=1;dashed=1;strokeWidth=3;fontSize=15;" parent="1" source="3" target="9" edge="1">
                    <mxGeometry relative="1" as="geometry"/>
                </mxCell>
                <mxCell id="3" value="" style="rounded=0;whiteSpace=wrap;html=1;fillColor=#41450C;" parent="1" vertex="1">
                    <mxGeometry x="360" y="155" width="350" height="120" as="geometry"/>
                </mxCell>
                <mxCell id="4" value="DOMAIN" style="text;strokeColor=none;fillColor=none;html=1;fontSize=15;fontStyle=1;verticalAlign=middle;align=left;" parent="1" vertex="1">
                    <mxGeometry x="360" y="155" width="60" height="25" as="geometry"/>
                </mxCell>
                <mxCell id="5" value="CreateUserUseCaseInterface" style="shape=ext;double=1;rounded=1;whiteSpace=wrap;html=1;fontSize=15;fillColor=#1ba1e2;fontColor=#ffffff;strokeColor=#006EAF;" parent="1" vertex="1">
                    <mxGeometry x="408.75" y="180" width="252.5" height="70" as="geometry"/>
                </mxCell>
                <mxCell id="7" value="" style="rounded=0;whiteSpace=wrap;html=1;fillColor=#452616;fontColor=#ffffff;strokeColor=#6F0000;gradientColor=none;shadow=0;" parent="1" vertex="1">
                    <mxGeometry x="360" y="310" width="620" height="120" as="geometry"/>
                </mxCell>
                <mxCell id="8" value="DATA" style="text;strokeColor=none;fillColor=none;html=1;fontSize=15;fontStyle=1;verticalAlign=middle;align=left;" parent="1" vertex="1">
                    <mxGeometry x="360" y="310" width="60" height="25" as="geometry"/>
                </mxCell>
                <mxCell id="10" style="edgeStyle=none;html=1;exitX=0.5;exitY=0;exitDx=0;exitDy=0;entryX=0.5;entryY=1;entryDx=0;entryDy=0;fontSize=15;strokeWidth=3;dashed=1;" parent="1" source="9" target="5" edge="1">
                    <mxGeometry relative="1" as="geometry"/>
                </mxCell>
                <mxCell id="13" style="edgeStyle=none;html=1;exitX=1;exitY=0.5;exitDx=0;exitDy=0;entryX=0;entryY=0.5;entryDx=0;entryDy=0;strokeWidth=3;fontSize=15;" parent="1" source="9" target="12" edge="1">
                    <mxGeometry relative="1" as="geometry"/>
                </mxCell>
                <mxCell id="9" value="CreateUserService" style="shape=ext;double=1;rounded=1;whiteSpace=wrap;html=1;fontSize=15;glass=0;" parent="1" vertex="1">
                    <mxGeometry x="437.5" y="335" width="195" height="70" as="geometry"/>
                </mxCell>
                <mxCell id="12" value="&lt;span style=&quot;color: rgb(240, 240, 240);&quot;&gt;ClientPostRequestSenderInterface&lt;/span&gt;" style="shape=ext;double=1;rounded=1;whiteSpace=wrap;html=1;fontSize=15;fillColor=#1ba1e2;fontColor=#ffffff;strokeColor=#006EAF;" parent="1" vertex="1">
                    <mxGeometry x="697.5" y="335" width="265" height="70" as="geometry"/>
                </mxCell>
                <mxCell id="14" value="" style="rounded=0;whiteSpace=wrap;html=1;fillColor=#0E003B;" parent="1" vertex="1">
                    <mxGeometry x="570" y="470" width="780" height="120" as="geometry"/>
                </mxCell>
                <mxCell id="15" value="INFRA" style="text;strokeColor=none;fillColor=none;html=1;fontSize=15;fontStyle=1;verticalAlign=middle;align=left;" parent="1" vertex="1">
                    <mxGeometry x="572.5" y="470" width="60" height="25" as="geometry"/>
                </mxCell>
                <mxCell id="20" style="edgeStyle=none;html=1;exitX=0.5;exitY=0;exitDx=0;exitDy=0;entryX=0.5;entryY=1;entryDx=0;entryDy=0;strokeWidth=3;fontSize=15;dashed=1;" parent="1" source="17" target="12" edge="1">
                    <mxGeometry relative="1" as="geometry"/>
                </mxCell>
                <mxCell id="53" style="edgeStyle=none;html=1;exitX=0.5;exitY=1;exitDx=0;exitDy=0;entryX=0.5;entryY=0;entryDx=0;entryDy=0;strokeWidth=3;fontSize=15;" parent="1" source="17" target="18" edge="1">
                    <mxGeometry relative="1" as="geometry"/>
                </mxCell>
                <mxCell id="17" value="ClientRequestSenderAdapter" style="shape=ext;double=1;rounded=1;whiteSpace=wrap;html=1;fontSize=15;" parent="1" vertex="1">
                    <mxGeometry x="723.75" y="495" width="212.5" height="70" as="geometry"/>
                </mxCell>
                <mxCell id="18" value="Axios" style="shape=ext;double=1;rounded=1;whiteSpace=wrap;html=1;fontSize=15;fillColor=#f0a30a;fontColor=#000000;strokeColor=#BD7000;" parent="1" vertex="1">
                    <mxGeometry x="732.5" y="640" width="195" height="70" as="geometry"/>
                </mxCell>
                <mxCell id="22" value="" style="rounded=0;whiteSpace=wrap;html=1;fillColor=#083815;" parent="1" vertex="1">
                    <mxGeometry x="360" y="10" width="620" height="120" as="geometry"/>
                </mxCell>
                <mxCell id="23" value="PRESENTATION" style="text;strokeColor=none;fillColor=none;html=1;fontSize=15;fontStyle=1;verticalAlign=middle;align=left;" parent="1" vertex="1">
                    <mxGeometry x="360" y="10" width="60" height="25" as="geometry"/>
                </mxCell>
                <mxCell id="30" style="edgeStyle=none;html=1;exitX=1;exitY=0.5;exitDx=0;exitDy=0;entryX=0;entryY=0.5;entryDx=0;entryDy=0;strokeWidth=3;fontSize=15;" parent="1" source="24" target="29" edge="1">
                    <mxGeometry relative="1" as="geometry"/>
                </mxCell>
                <mxCell id="31" style="edgeStyle=none;html=1;exitX=0.5;exitY=1;exitDx=0;exitDy=0;entryX=0.5;entryY=0;entryDx=0;entryDy=0;strokeWidth=3;fontSize=15;" parent="1" source="24" target="5" edge="1">
                    <mxGeometry relative="1" as="geometry"/>
                </mxCell>
                <mxCell id="69" style="edgeStyle=none;html=1;exitX=0;exitY=0.5;exitDx=0;exitDy=0;entryX=0.5;entryY=1;entryDx=0;entryDy=0;strokeWidth=3;fontSize=15;" parent="1" source="24" target="68" edge="1">
                    <mxGeometry relative="1" as="geometry">
                        <Array as="points">
                            <mxPoint x="200" y="70"/>
                        </Array>
                    </mxGeometry>
                </mxCell>
                <mxCell id="24" value="CreateUserPage" style="shape=ext;double=1;rounded=1;whiteSpace=wrap;html=1;fontSize=15;" parent="1" vertex="1">
                    <mxGeometry x="424.38" y="35" width="221.25" height="70" as="geometry"/>
                </mxCell>
                <mxCell id="29" value="ValidatorInterface" style="shape=ext;double=1;rounded=1;whiteSpace=wrap;html=1;fontSize=15;fillColor=#1ba1e2;fontColor=#ffffff;strokeColor=#006EAF;" parent="1" vertex="1">
                    <mxGeometry x="723.75" y="35" width="216.25" height="70" as="geometry"/>
                </mxCell>
                <mxCell id="36" value="" style="rounded=0;whiteSpace=wrap;html=1;fillColor=#0b2251;fontColor=#ffffff;strokeColor=#001DBC;" parent="1" vertex="1">
                    <mxGeometry x="360" y="-260" width="360" height="240" as="geometry"/>
                </mxCell>
                <mxCell id="37" value="MAIN" style="text;strokeColor=none;fillColor=none;html=1;fontSize=15;fontStyle=1;verticalAlign=middle;align=left;" parent="1" vertex="1">
                    <mxGeometry x="360" y="-260" width="60" height="25" as="geometry"/>
                </mxCell>
                <mxCell id="65" style="edgeStyle=none;html=1;exitX=0.5;exitY=1;exitDx=0;exitDy=0;entryX=0.5;entryY=0;entryDx=0;entryDy=0;strokeWidth=3;fontSize=15;" parent="1" source="39" target="24" edge="1">
                    <mxGeometry relative="1" as="geometry"/>
                </mxCell>
                <mxCell id="70" style="edgeStyle=none;html=1;exitX=0;exitY=0.5;exitDx=0;exitDy=0;entryX=1;entryY=0.5;entryDx=0;entryDy=0;strokeWidth=3;fontSize=15;" parent="1" source="39" target="68" edge="1">
                    <mxGeometry relative="1" as="geometry"/>
                </mxCell>
                <mxCell id="39" value="Router" style="shape=ext;double=1;rounded=1;whiteSpace=wrap;html=1;fontSize=15;" parent="1" vertex="1">
                    <mxGeometry x="424.38" y="-115" width="221.25" height="70" as="geometry"/>
                </mxCell>
                <mxCell id="45" value="" style="rounded=0;whiteSpace=wrap;html=1;fillColor=#06381A;" parent="1" vertex="1">
                    <mxGeometry x="1010" y="10" width="340" height="420" as="geometry"/>
                </mxCell>
                <mxCell id="46" value="VALIDATION" style="text;strokeColor=none;fillColor=none;html=1;fontSize=15;fontStyle=1;verticalAlign=middle;align=left;" parent="1" vertex="1">
                    <mxGeometry x="1010" y="10" width="60" height="25" as="geometry"/>
                </mxCell>
                <mxCell id="61" style="edgeStyle=none;html=1;exitX=0;exitY=0.25;exitDx=0;exitDy=0;strokeWidth=3;fontSize=15;dashed=1;entryX=1;entryY=0.25;entryDx=0;entryDy=0;" parent="1" source="48" target="29" edge="1">
                    <mxGeometry relative="1" as="geometry"/>
                </mxCell>
                <mxCell id="72" style="edgeStyle=none;html=1;exitX=0;exitY=0.75;exitDx=0;exitDy=0;entryX=1;entryY=0.75;entryDx=0;entryDy=0;strokeWidth=3;fontSize=15;" parent="1" source="48" target="29" edge="1">
                    <mxGeometry relative="1" as="geometry"/>
                </mxCell>
                <mxCell id="48" value="ValidatorComposite" style="shape=ext;double=1;rounded=1;whiteSpace=wrap;html=1;fontSize=15;" parent="1" vertex="1">
                    <mxGeometry x="1068.75" y="35" width="221.25" height="70" as="geometry"/>
                </mxCell>
                <mxCell id="62" style="edgeStyle=none;html=1;exitX=0;exitY=0.5;exitDx=0;exitDy=0;entryX=0.75;entryY=1;entryDx=0;entryDy=0;dashed=1;strokeWidth=3;fontSize=15;" parent="1" source="51" target="29" edge="1">
                    <mxGeometry relative="1" as="geometry">
                        <Array as="points">
                            <mxPoint x="886" y="155"/>
                        </Array>
                    </mxGeometry>
                </mxCell>
                <mxCell id="51" value="RequiredFieldValidator" style="shape=ext;double=1;rounded=1;whiteSpace=wrap;html=1;fontSize=15;" parent="1" vertex="1">
                    <mxGeometry x="1068.75" y="120" width="221.25" height="70" as="geometry"/>
                </mxCell>
                <mxCell id="60" style="edgeStyle=none;html=1;exitX=0.5;exitY=1;exitDx=0;exitDy=0;entryX=0.5;entryY=0;entryDx=0;entryDy=0;strokeWidth=3;fontSize=15;" parent="1" source="52" target="57" edge="1">
                    <mxGeometry relative="1" as="geometry"/>
                </mxCell>
                <mxCell id="63" style="edgeStyle=none;html=1;exitX=0;exitY=0.5;exitDx=0;exitDy=0;entryX=0.5;entryY=1;entryDx=0;entryDy=0;dashed=1;strokeWidth=3;fontSize=15;" parent="1" source="52" target="29" edge="1">
                    <mxGeometry relative="1" as="geometry">
                        <Array as="points">
                            <mxPoint x="832" y="240"/>
                        </Array>
                    </mxGeometry>
                </mxCell>
                <mxCell id="52" value="EmailValidator" style="shape=ext;double=1;rounded=1;whiteSpace=wrap;html=1;fontSize=15;" parent="1" vertex="1">
                    <mxGeometry x="1069.3700000000001" y="205" width="221.25" height="70" as="geometry"/>
                </mxCell>
                <mxCell id="56" style="edgeStyle=none;html=1;exitX=0.5;exitY=1;exitDx=0;exitDy=0;entryX=0.5;entryY=0;entryDx=0;entryDy=0;strokeWidth=3;fontSize=15;" parent="1" source="54" target="55" edge="1">
                    <mxGeometry relative="1" as="geometry"/>
                </mxCell>
                <mxCell id="58" style="edgeStyle=none;html=1;exitX=0.5;exitY=0;exitDx=0;exitDy=0;entryX=0.5;entryY=1;entryDx=0;entryDy=0;strokeWidth=3;fontSize=15;dashed=1;" parent="1" source="54" target="57" edge="1">
                    <mxGeometry relative="1" as="geometry"/>
                </mxCell>
                <mxCell id="54" value="EmailValidatorAdapter" style="shape=ext;double=1;rounded=1;whiteSpace=wrap;html=1;fontSize=15;" parent="1" vertex="1">
                    <mxGeometry x="1073.75" y="495" width="212.5" height="70" as="geometry"/>
                </mxCell>
                <mxCell id="55" value="EmailValidator" style="shape=ext;double=1;rounded=1;whiteSpace=wrap;html=1;fontSize=15;fillColor=#f0a30a;fontColor=#000000;strokeColor=#BD7000;" parent="1" vertex="1">
                    <mxGeometry x="1082.5" y="640" width="195" height="70" as="geometry"/>
                </mxCell>
                <mxCell id="57" value="&lt;span style=&quot;color: rgb(240, 240, 240);&quot;&gt;EmailValidationInterface&lt;/span&gt;" style="shape=ext;double=1;rounded=1;whiteSpace=wrap;html=1;fontSize=15;fillColor=#1ba1e2;fontColor=#ffffff;strokeColor=#006EAF;" parent="1" vertex="1">
                    <mxGeometry x="1070" y="335" width="220" height="70" as="geometry"/>
                </mxCell>
                <mxCell id="67" style="edgeStyle=none;html=1;exitX=0.5;exitY=1;exitDx=0;exitDy=0;entryX=0.5;entryY=0;entryDx=0;entryDy=0;strokeWidth=3;fontSize=15;" parent="1" source="66" target="39" edge="1">
                    <mxGeometry relative="1" as="geometry"/>
                </mxCell>
                <mxCell id="71" style="edgeStyle=none;html=1;exitX=0;exitY=0.5;exitDx=0;exitDy=0;entryX=0.5;entryY=0;entryDx=0;entryDy=0;strokeWidth=3;fontSize=15;" parent="1" source="66" target="68" edge="1">
                    <mxGeometry relative="1" as="geometry">
                        <Array as="points">
                            <mxPoint x="198" y="-200"/>
                        </Array>
                    </mxGeometry>
                </mxCell>
                <mxCell id="66" value="Index" style="shape=ext;double=1;rounded=1;whiteSpace=wrap;html=1;fontSize=15;" parent="1" vertex="1">
                    <mxGeometry x="424.38" y="-235" width="221.25" height="70" as="geometry"/>
                </mxCell>
                <mxCell id="68" value="React" style="shape=ext;double=1;rounded=1;whiteSpace=wrap;html=1;fontSize=15;fillColor=#f0a30a;fontColor=#000000;strokeColor=#BD7000;" parent="1" vertex="1">
                    <mxGeometry x="100" y="-115" width="195" height="70" as="geometry"/>
                </mxCell>
            </root>
        </mxGraphModel>
    </diagram>
</mxfile>